PathFileType	4	(X/Y/Z)	Run_300 02
DataRate	CameraRate	NumFrames	NumMarkers	Units	OrigDataRate	OrigDataStartFrame	OrigNumFrames
100	100	4	42	mm	100	199	128
Frame#	Time	LASI			RASI			LPSI			RTH1			RTH2			RTH3			LTH1			LTH2			LTH3			RTB1			RTB2			RTB3			LTB1			LTB2			LTB3			RCAL			RTOE			RMT5			LCAL			LTOE			LMT5			LACR			RACR			CLAV			C7			RUA1			RUA2			RUA3			RLEL			RMEL			LUA1			LUA2			LUA3			LLEL			RFAsuperior			RFAradius			RFAulna			LFAsuperior			LFAradius			LFAulna			LMEL			RPSI			
		X1	Y1	Z1	X2	Y2	Z2	X3	Y3	Z3	X4	Y4	Z4	X5	Y5	Z5	X6	Y6	Z6	X7	Y7	Z7	X8	Y8	Z8	X9	Y9	Z9	X10	Y10	Z10	X11	Y11	Z11	X12	Y12	Z12	X13	Y13	Z13	X14	Y14	Z14	X15	Y15	Z15	X16	Y16	Z16	X17	Y17	Z17	X18	Y18	Z18	X19	Y19	Z19	X20	Y20	Z20	X21	Y21	Z21	X22	Y22	Z22	X23	Y23	Z23	X24	Y24	Z24	X25	Y25	Z25	X26	Y26	Z26	X27	Y27	Z27	X28	Y28	Z28	X29	Y29	Z29	X30	Y30	Z30	X31	Y31	Z31	X32	Y32	Z32	X33	Y33	Z33	X34	Y34	Z34	X35	Y35	Z35	X36	Y36	Z36	X37	Y37	Z37	X38	Y38	Z38	X39	Y39	Z39	X40	Y40	Z40	X41	Y41	Z41	X42	Y42	Z42	

197	2.57	1253.392811	977.761837	-461.743544	1244.783491	951.758562	-204.146022	1076.804272	1020.931056	-378.430926	1202.795571	768.475818	-177.707078	1232.207748	668.816691	-193.534579	1164.570746	535.893585	-203.525555	1199.264312	844.431911	-535.062364	1299.603119	739.683578	-524.536785	1277.177819	608.0246	-500.332372	1028.284948	376.048978	-269.654621	926.266005	414.239744	-220.167276	851.481136	390.343808	-278.926385	1337.247199	337.581487	-410.004252	1291.291906	282.257016	-450.503095	1287.611436	208.44219	-386.93357	755.133549	504.238015	-265.178407	728.809383	271.840062	-297.349599	701.283131	283.778722	-223.266588	1138.820178	101.206389	-361.335488	1382.451541	73.592364	-338.74209	1353.028103	56.649068	-427.156613	1261.671718	1466.008756	-533.33087	1285.001011	1465.335364	-182.593127	1323.228847	1407.986224	-329.906437	1211.590894	1507.113782	-356.170681	1218.362273	1338.835634	-102.899004	1148.692725	1341.737987	-91.14243	1154.198684	1266.472409	-81.202806	1110.565563	1200.268773	-57.647509	1058.696228	1211.157853	-135.669892	1176.220091	1360.951797	-605.2962199999999	1089.824178	1331.088839	-580.65814	1102.711873	1255.382478	-620.676454	1066.432283	1198.488423	-636.909261	1185.479114	1153.785784	-87.04484600000001	1300.323979	1071.646857	-184.019202	1261.332663	1021.08326	-149.50356	1144.922654	1160.963477	-631.492409	1308.76598	1141.094718	-557.34433	1286.726072	1074.994025	-576.6080459999999	1041.550774	1186.435908	-548.900454	1073.846122	1007.742586	-286.397737	
198	2.58	1249.837347	975.442717	-460.395043	1239.893183	948.357225	-201.708086	1074.477836	1018.829465	-378.382788	1202.543291	765.878724	-175.957242	1239.926983	667.427582	-190.743003	1179.777172	533.475326	-201.298577	1196.374372	840.565162	-534.939645	1293.135399	734.9633250000001	-524.247264	1267.200557	602.894992	-500.292512	1049.919423	374.802507	-269.181861	948.603868	413.93143	-219.78004	873.835152	390.37384	-278.876918	1319.162613	330.638132	-411.159688	1269.717235	277.789138	-450.700973	1262.803059	204.328508	-386.896947	775.023172	504.576717	-266.139767	754.0744089999999	271.14319	-294.641652	728.401445	283.330589	-219.935831	1109.091264	102.096528	-361.457545	1352.378084	72.15616199999999	-338.62198	1322.974115	56.075133	-427.247515	1266.248245	1460.517679	-533.49305	1279.155998	1460.814829	-181.641541	1321.681658	1404.290636	-328.118747	1211.299496	1504.206988	-357.298711	1208.387918	1334.54094	-104.516648	1137.736692	1337.774602	-95.908355	1141.852931	1263.023138	-85.10379399999999	1097.114833	1196.665046	-63.027042	1049.096898	1205.943545	-142.847354	1188.698731	1349.502944	-605.898322	1100.485796	1319.122049	-585.38882	1116.698704	1242.02394	-620.553349	1083.863867	1184.263541	-637.736002	1173.049843	1148.954309	-89.90876900000001	1288.426668	1059.615123	-179.284278	1245.926903	1011.609713	-144.291279	1163.403323	1149.421347	-629.724529	1323.715041	1129.100636	-553.229257	1302.244617	1063.086016	-575.493136	1053.854484	1171.529981	-551.283771	1069.535192	1005.047282	-285.892665	
199	2.59	1247.639131	974.121011	-459.666357	1235.748017	946.5775640000001	-200.205159	1072.968434	1018.208594	-379.517133	1202.214304	764.730511	-174.540254	1248.180555	668.110577	-187.809579	1195.905087	532.920256	-199.190577	1192.553321	837.359105	-535.152618	1287.366812	729.325057	-523.46123	1255.988354	598.175648	-500.111801	1072.469012	374.957377	-269.176945	971.339103	413.462363	-219.6275	896.719067	389.381692	-278.910044	1299.739412	324.46197	-411.661506	1248.070995	273.654344	-450.485274	1237.518418	201.125415	-386.683034	794.165213	502.653131	-266.751038	781.192886	268.371006	-293.039369	757.287677	280.168577	-217.629932	1079.424001	103.302785	-361.737308	1322.303942	71.191993	-338.49896	1292.987357	55.942948	-427.286421	1271.131169	1456.690124	-533.252075	1272.551901	1458.270182	-180.913982	1319.862415	1402.201032	-326.042353	1210.439349	1501.597528	-358.415175	1197.451618	1333.365162	-105.676652	1126.072222	1337.223	-101.176892	1128.641533	1263.030275	-88.43549899999999	1082.610113	1196.87321	-67.623981	1039.316823	1204.603931	-149.425011	1199.8631	1341.924546	-605.2595219999999	1110.945983	1310.472258	-587.576182	1129.895885	1232.754833	-619.195722	1100.032999	1173.957325	-636.624457	1158.781658	1147.248319	-91.088728	1275.83632	1053.694729	-174.836107	1230.364976	1007.532685	-140.612182	1181.098402	1141.86436	-626.597256	1338.536525	1121.669171	-548.104898	1318.012076	1055.882948	-573.350398	1065.707052	1160.704066	-551.234633	1066.126128	1004.063372	-286.779967	
200	2.6	1246.35049	973.367461	-459.500502	1232.57927	946.512923	-200.449532	1071.899064	1018.759442	-381.141939	1202.356323	765.336581	-173.303532	1256.485745	671.284009	-184.85882	1212.437746	534.63532	-197.59488	1187.840736	835.466419	-535.372883	1281.975957	723.700437	-522.626113	1244.821154	594.3770019999999	-500.057349	1095.801107	377.013276	-269.577503	994.063336	412.869621	-219.785633	919.7412409999999	387.481945	-279.073836	1279.116095	319.528525	-411.105508	1226.544566	270.213901	-450.060133	1211.921671	198.982278	-386.517906	812.398627	498.35173	-267.154996	810.027747	263.615226	-292.297511	787.5026789999999	274.610015	-216.194211	1049.871739	104.792481	-362.181292	1292.430057	70.408241	-338.318067	1263.133448	55.926295	-427.3064	1276.616678	1454.813336	-533.0394	1265.331845	1457.768653	-180.408209	1318.101978	1401.604609	-323.895901	1209.387876	1500.012424	-359.806519	1185.441903	1335.200662	-106.411454	1113.726789	1339.945134	-106.602612	1114.596177	1266.336023	-91.36506900000001	1067.098235	1200.808486	-71.54553799999999	1028.972386	1207.536543	-155.455689	1208.771191	1337.723871	-603.9405	1120.127989	1304.430776	-588.04607	1141.5611	1226.737966	-616.859226	1113.494683	1167.203437	-634.0080369999999	1142.65495	1148.607775	-90.728797	1262.966018	1054.246006	-170.628115	1215.302799	1009.071459	-138.35045	1195.863967	1137.370912	-622.790607	1352.087963	1119.721209	-542.218399	1333.396777	1054.223753	-570.120493	1077.297919	1153.961958	-548.956848	1064.022489	1004.591045	-288.587367	
